<svg id="Layer_1" data-name="Layer 1" xmlns="http://www.w3.org/2000/svg" viewBox="0 0 280.46 244.68"><defs><style>.cls-1{fill:#29abe2;}.cls-2{font-size:33px;fill:#2e3192;font-family:Leelawadee;letter-spacing:0.15em;}.cls-3{letter-spacing:0.14em;}.cls-4{letter-spacing:0.16em;}.cls-5{letter-spacing:0.15em;}.cls-6{fill:#0071bc;}</style></defs><rect class="cls-1" x="0.74" y="41.92" width="25" height="163.14"/><rect class="cls-1" x="118.08" y="41.92" width="25" height="163.14" transform="translate(261.16 246.97) rotate(180)"/><path class="cls-1" d="M274.55,205.05V182.14c-138.84,6.51-135.47-125.63,0-117-.12-.07.07-22.78,0-22.87-174.44-10-176.14,171.16,0,162.4"/><polygon class="cls-1" points="89.38 99.59 71.7 115.61 8.06 57.94 25.74 41.91 89.38 99.59"/><polygon class="cls-1" points="54.02 99.59 71.7 115.61 135.34 57.94 117.66 41.91 54.02 99.59"/><text class="cls-2" transform="translate(0 236.85) scale(1.04 1)">Con<tspan class="cls-3" x="73.29" y="0">v</tspan><tspan x="93.86" y="0">e</tspan><tspan class="cls-4" x="116.06" y="0">r</tspan><tspan class="cls-5" x="132.71" y="0">sations</tspan></text><rect class="cls-6" x="0.74" y="35.63" width="273.83" height="5.93"/><rect class="cls-6" x="0.74" y="204.7" width="273.81" height="6.28"/><text class="cls-2" transform="translate(31.23 28.05) scale(1.04 1)">Meaningful</text></svg>